PathFileType	4	(X/Y/Z)	D:\TRACE\spotREDO_2-26-24\spot_justBody_Motion_3_4-platform.trc
DataRate	CameraRate	NumFrames	NumMarkers	Units	OrigDataRate	OrigDataStartFrame	OrigNumFrames
100.00	100.00	      30	5	mm	100.00	2626	      7000
Frame#	Time	Left_Front			Right_Front			Left_Aft			Right_Aft			Post			
		X1	Y1	Z1	X2	Y2	Z2	X3	Y3	Z3	X4	Y4	Z4	X5	Y5	Z5	

2626	26.250	-701.92291	-10.79261	-577.39624	713.06396	-1.10953	-492.76065	-773.43884	11.47825	641.19580	796.99677	18.84462	645.14221	7.83776	611.62439	-991.57849	
2627	26.260	-701.85767	-11.57485	-577.55707	713.08234	-1.75201	-493.11935	-773.33765	12.34562	640.79114	796.84418	19.73321	644.97137	7.72458	610.23419	-992.37207	
2628	26.270	-701.87750	-12.12234	-577.59705	713.35919	-2.11571	-492.82361	-773.33838	13.20345	640.66467	796.87885	20.47671	644.82404	8.14036	609.22223	-992.98206	
2629	26.280	-701.81317	-12.81972	-577.87738	713.22479	-2.96606	-493.30533	-773.22992	13.54388	640.56885	796.93567	20.86273	644.74744	8.03630	608.12427	-993.68066	
2630	26.290	-701.72247	-13.62290	-578.05115	713.21906	-3.16762	-493.52426	-773.21521	14.30415	640.44653	797.09869	21.85469	644.37000	7.98279	607.12598	-994.34991	
2631	26.300	-701.69434	-14.14976	-578.17322	713.21271	-3.91606	-493.80234	-773.32196	15.18969	640.10388	797.19824	22.39517	644.19275	7.94501	605.92584	-995.38495	
2632	26.310	-701.64722	-14.70592	-578.34290	713.45593	-4.43430	-493.67557	-773.11511	15.91060	639.90057	796.97894	23.11156	644.09943	8.04737	604.86481	-996.24164	
2633	26.320	-701.69128	-15.25756	-578.61847	713.52686	-5.04127	-493.95892	-773.19781	16.26062	639.87274	796.73993	23.39951	643.99957	7.98284	603.94403	-996.75623	
2634	26.330	-701.66833	-16.04169	-578.73425	713.44604	-5.74393	-493.96198	-773.15558	16.64185	639.72455	797.00787	24.16743	643.65717	8.15754	602.90076	-997.79877	
2635	26.340	-701.69482	-16.54750	-578.76917	713.41382	-6.20280	-494.19464	-773.22223	17.37867	639.59015	797.28070	24.95368	643.47198	8.07576	601.82684	-998.68677	
2636	26.350	-701.61707	-16.99329	-578.82379	713.25385	-6.34556	-494.48770	-773.15527	18.25931	639.36761	797.07324	25.28002	643.36816	8.14657	600.96838	-999.20801	
2637	26.360	-701.62073	-17.52085	-579.06421	713.35968	-6.79110	-494.58884	-773.18109	18.78182	639.20233	797.01764	26.05531	643.23303	8.16341	599.88684	-1000.11932	
2638	26.370	-701.76611	-18.26291	-579.16827	713.39301	-7.27624	-494.65182	-773.13843	19.21692	639.12158	797.14038	26.63614	642.99030	8.24742	598.90784	-1000.89325	
2639	26.380	-701.57465	-18.97195	-579.25201	713.53284	-7.92302	-494.59824	-773.20648	19.64635	638.87347	797.30859	27.19900	642.84827	8.27865	597.98151	-1001.48438	
2640	26.390	-701.49713	-19.44213	-579.33575	713.30646	-8.53888	-494.90039	-773.24634	20.32557	638.54614	797.10425	27.71418	642.66913	8.29502	597.16522	-1001.96429	
2641	26.400	-701.48407	-19.73064	-579.47668	713.35876	-8.91306	-494.88733	-773.26440	20.91145	638.44220	796.80237	28.17523	642.54059	9.17850	596.04224	-1002.40930	
2642	26.410	-701.62549	-20.06253	-579.62665	713.24701	-9.26472	-495.09378	-773.30328	21.43825	638.43225	797.07111	28.65053	642.40564	9.52716	595.26593	-1003.02399	
2643	26.420	-701.74725	-20.75838	-579.78699	712.89642	-9.81803	-495.40714	-773.38422	21.85552	638.10278	797.03070	29.23201	642.10248	7.82351	594.45813	-1003.92529	
2644	26.430	-701.94922	-21.37562	-579.82886	712.68292	-10.00262	-495.57471	-773.57489	22.26482	638.05396	796.89594	29.56811	642.08612	7.73708	593.88947	-1004.32678	
2645	26.440	-701.91968	-21.87416	-579.87091	712.51019	-10.39125	-495.69290	-773.73755	22.71942	637.85657	796.61133	30.24014	641.94934	7.10740	593.17963	-1004.96100	
2646	26.450	-701.98639	-22.24494	-579.97272	712.34357	-10.80398	-495.75302	-773.94666	23.23541	637.75989	796.57983	30.80013	641.79968	7.31971	592.24988	-1005.58362	
2647	26.460	-702.24677	-22.65868	-580.07678	712.24121	-11.11420	-495.80002	-774.03131	23.72073	637.51971	796.64844	31.09252	641.69257	7.29203	591.59979	-1006.25201	
2648	26.470	-702.48883	-22.95269	-580.21857	712.24127	-11.74457	-495.76953	-774.18311	24.15337	637.41040	796.41357	31.32743	641.60016	7.53676	590.91199	-1006.43060	
2649	26.480	-702.53680	-23.40383	-580.44165	712.31104	-12.07843	-495.74524	-774.24164	24.46620	637.38483	796.15686	31.71832	641.36938	7.47270	589.97119	-1006.85126	
2650	26.490	-702.71545	-23.74216	-580.49792	712.03320	-12.28965	-495.91092	-774.31958	24.73959	637.30969	795.83545	32.18598	641.30542	6.95130	589.53149	-1007.64252	
2651	26.500	-702.80353	-24.09911	-580.46997	711.94458	-12.61125	-496.00623	-774.51306	25.29373	637.16455	795.85345	32.51802	641.16833	6.81144	588.96844	-1008.10638	
2652	26.510	-702.94727	-24.52344	-580.53815	711.79211	-12.80645	-496.15848	-774.64746	25.61354	637.01959	795.90125	32.68785	640.90173	6.73556	588.20453	-1008.51947	
2653	26.520	-703.17700	-24.93456	-580.65601	711.63800	-13.13390	-496.26486	-774.75446	25.93692	636.95685	795.55255	33.12715	640.85522	6.64151	587.54279	-1009.04187	
2654	26.530	-703.39496	-25.29761	-580.80103	711.48932	-13.76534	-496.36511	-774.84186	26.30010	636.85358	795.27692	33.59887	640.79205	6.53162	587.04938	-1009.36365	
2655	26.540	-703.63385	-25.54876	-580.86670	711.51630	-13.87454	-496.21454	-774.99896	26.68099	636.79901	795.08130	34.05576	640.63226	6.06599	586.47113	-1009.96161	
